<?xml version="1.0" standalone="no"?>
<!DOCTYPE svg PUBLIC "-//W3C//DTD SVG 20010904//EN"
 "http://www.w3.org/TR/2001/REC-SVG-20010904/DTD/svg10.dtd">
<svg version="1.0" xmlns="http://www.w3.org/2000/svg"
 width="16.000000pt" height="16.000000pt" viewBox="0 0 16.000000 16.000000"
 preserveAspectRatio="xMidYMid meet">
<metadata>
Created by potrace 1.11, written by Peter Selinger 2001-2013
</metadata>
<g transform="translate(0.000000,16.000000) scale(0.005333,-0.005333)"
fill="#000000" stroke="none">
<path d="M1497 2554 c-1 -1 -40 -4 -87 -8 -108 -8 -252 -47 -358 -97 -548
-255 -768 -948 -471 -1485 186 -337 532 -539 939 -548 153 -3 373 45 504 110
232 116 393 332 460 617 37 155 57 391 34 399 -21 7 -1042 3 -1053 -4 -13 -8
-14 -343 -1 -355 4 -4 125 -8 269 -8 l262 0 3 -27 c2 -17 -8 -49 -24 -79 -74
-135 -263 -231 -460 -231 -158 -1 -294 56 -412 171 -77 75 -128 159 -168 276
-23 69 -27 96 -27 200 0 104 4 130 27 200 97 287 336 459 614 443 64 -4 107
-13 164 -35 75 -30 183 -99 222 -142 11 -11 25 -21 33 -21 20 0 323 262 323
279 0 17 -75 88 -155 148 -126 94 -308 166 -465 182 -122 13 -170 17 -173 15z"/>
</g>
</svg>
